<svg width="800" height="865" viewBox="0 0 800 865" xmlns="http://www.w3.org/2000/svg">

<path id="서울특별시" stroke="#ffffff" fill="#e6f4ea" stroke-width="2" stroke-linejoin="round" d="M 329 202 l 1 3 -1 4 0 3 4 -1 2 -1 1 0 1 2 -1 2 -2 2 -1 4 0 3 -2 2 -1 1 -1 0 0 0 -1 0 0 0 -2 2 -1 2 0 0 0 0 -2 0 -1 -2 -1 -3 -1 1 -1 0 -1 -1 -2 1 -2 2 -3 0 -4 0 -2 -3 -1 -2 0 -2 -2 2 -3 0 0 -3 -1 -4 -2 -1 -2 -1 -1 -1 1 -1 2 -3 1 -3 0 1 2 1 2 2 1 1 2 -1 2 -2 2 -3 0 -4 3 -1 2 0 1 3 2 -2 0 -2 2 -2 1 -3 3 1 1 0 1 0 1 0 2 0 1 1 0 1 0 1 0 0 0 2 z " />
<path id="부산광역시" stroke="#ffffff" fill="#c2e6cd" stroke-width="2" stroke-linejoin="round" d="M 527 545 l 1 1 2 0 -2 0 z M 529 545 l -1 0 1 0 -1 0 z M 517 541 l 0 0 0 2 0 1 0 0 0 1 0 0 0 0 1 0 0 3 -1 4 0 2 -1 0 0 -2 -2 -4 -1 -2 0 0 0 0 0 0 2 -1 2 -3 -1 0 z M 542 543 l -3 -3 3 0 2 2 0 0 1 0 0 0 -1 1 1 2 -1 0 0 0 z M 539 539 l -2 4 -1 3 0 -1 0 0 0 0 0 0 0 0 0 -1 0 0 0 -1 -1 -2 0 3 0 2 0 0 0 0 -2 -1 -1 0 1 0 0 1 -1 0 0 1 -1 0 -1 -3 0 -4 -2 0 0 -2 -1 2 -2 2 -1 0 0 -2 0 -2 1 -1 -1 0 -1 3 -1 2 -1 0 0 0 0 -1 -3 0 -2 -2 1 0 0 -2 -2 -2 -2 -1 0 -2 2 0 3 -1 2 -1 1 0 0 1 -1 1 1 0 0 -3 0 -3 0 0 1 -1 3 -1 -1 -1 2 0 2 -1 2 0 3 -1 3 -3 2 -2 2 -1 2 -2 4 -1 1 -2 1 -2 1 -3 -1 -2 -1 0 1 0 2 1 4 1 2 -1 1 -3 5 0 2 0 2 5 1 1 1 1 -3 1 -2 1 0 0 0 1 0 0 0 0 0 0 0 0 0 0 0 0 0 0 0 0 0 1 0 0 0 0 0 0 0 0 0 0 0 1 0 0 0 1 -2 3 0 3 -1 3 0 -1 -1 1 0 1 1 2 -1 1 0 0 0 0 0 0 0 0 0 0 0 0 -2 1 -1 3 -3 0 -2 1 1 -1 -2 0 -1 -1 0 2 -2 1 1 0 -1 1 0 0 1 1 -1 0 1 0 0 -1 1 2 -1 3 -1 0 -2 -1 0 0 -2 0 -1 -2 -2 1 0 1 0 0 0 0 0 0 z " />
<path id="대구광역시" stroke="#ffffff" fill="#9fd9b0" stroke-width="2" stroke-linejoin="round" d="M 479 434 l 2 -2 1 -2 1 -2 -1 -3 0 -2 0 0 0 0 3 1 2 -1 2 -1 2 -2 3 -1 0 -1 -2 -2 1 -3 -1 -3 -3 0 0 1 -1 0 -1 0 -1 0 0 -1 0 0 0 0 0 -2 0 -1 -1 -2 -1 -4 0 -4 -1 -3 -3 0 -2 -1 -1 -3 -5 0 -2 -2 0 -2 0 -2 1 -1 -2 -2 2 -1 1 -2 4 0 4 2 2 0 2 2 4 1 2 1 2 0 2 2 0 0 0 1 0 0 0 0 -1 1 0 2 0 2 1 0 2 -1 1 1 0 -1 2 0 1 2 3 0 4 0 4 0 1 -2 2 0 3 0 2 2 2 2 0 2 0 3 -2 0 -2 1 0 1 0 1 0 0 0 0 -2 2 -2 2 -2 1 -3 -1 -2 0 0 -1 -1 0 0 0 0 0 -2 2 -1 3 -1 2 -1 3 2 2 2 2 1 3 0 1 0 1 0 1 0 1 0 2 0 1 2 2 0 4 -1 3 -2 1 -1 2 0 0 -1 1 0 3 -2 2 0 3 -1 5 -2 1 -2 1 -3 1 -1 -3 -3 -1 -3 1 -2 2 0 5 -2 0 -1 5 -4 0 -2 0 -2 2 -3 1 -4 0 3 -1 0 -3 -2 -2 -2 -2 0 -3 5 0 3 -1 -1 -3 -2 -2 -2 -1 0 -1 0 -1 2 -4 2 -1 0 -1 3 1 2 0 1 -2 -2 -3 -3 -1 -3 0 -2 -1 0 -1 0 -2 2 -4 2 -2 1 -1 4 -1 0 4 1 2 1 0 0 0 z " />
<path id="인천광역시" stroke="#ffffff" fill="#7bcc94" stroke-width="2" stroke-linejoin="round" d="M 210 282 l -2 -1 0 0 0 0 0 0 0 0 z M 213 277 l -1 0 0 -1 0 0 z M 206 275 l -1 1 0 0 -1 -1 z M 220 272 l 0 0 0 1 -2 1 0 -2 0 0 0 0 0 0 0 0 0 0 z M 242 263 l 2 1 0 1 -1 -1 0 0 -1 0 0 0 z M 238 263 l 2 1 0 1 -1 -1 z M 208 260 l 1 0 0 1 -2 0 z M 229 256 l 1 2 2 0 -2 0 z M 269 250 l -1 5 -2 -2 0 -1 z M 242 251 l 3 1 3 0 -1 1 -2 0 -2 0 0 0 0 0 z M 223 251 l 1 1 -1 1 1 0 0 0 0 0 2 1 2 1 -1 1 -1 1 -3 0 0 -1 -1 1 0 0 0 0 -1 -2 z M 257 254 l 0 -3 2 -1 1 -1 2 0 1 0 0 0 1 2 0 2 -1 -1 0 1 -1 0 0 0 0 1 -2 3 -1 -2 z M 220 247 l 1 1 0 1 -1 0 z M 256 233 l 0 1 0 0 1 2 0 1 0 0 0 0 0 0 0 0 -1 0 0 1 -1 -1 0 0 0 -1 -1 -2 0 -1 z M 269 217 l 2 1 2 2 -2 3 -3 0 -3 2 -2 2 -7 3 -1 -1 -2 -1 -3 -1 1 0 0 -1 -1 -1 1 -2 3 -1 2 -2 4 0 4 -1 1 -1 -1 0 1 -2 z M 261 214 l 0 2 0 2 -1 -1 -2 0 1 -2 z M 246 213 l 1 0 2 2 3 0 -4 1 -2 0 z M 267 208 l -2 0 1 -1 0 0 z M 289 235 l -5 1 -1 4 -3 0 -4 1 -3 -1 3 -1 3 1 -1 -3 -2 -2 -1 -4 4 -1 0 -1 -4 -2 0 -1 0 0 0 -2 1 -2 1 0 0 0 0 0 -1 0 1 0 0 -1 1 0 0 0 0 1 1 0 0 -1 -3 -2 0 -1 0 0 0 -2 0 -3 4 -1 2 -1 -3 0 -3 1 -2 -1 2 0 3 0 3 -1 0 0 -3 -1 -4 -1 2 -2 1 0 0 0 1 -1 2 -3 1 0 2 2 3 2 1 2 3 1 5 0 -2 3 -1 1 -1 3 0 2 0 0 0 0 0 0 -1 1 0 4 3 2 0 2 -1 1 0 1 0 0 0 0 0 1 -1 1 -1 3 z M 276 225 l 2 1 -1 -1 1 0 -1 0 1 0 z M 178 195 l 1 0 1 0 0 0 1 0 1 0 0 0 -2 2 z M 233 195 l 0 2 1 2 -2 -1 -3 -2 3 -1 0 0 0 0 z M 226 194 l 1 1 -1 0 -1 0 z M 248 200 l -2 -1 0 -3 -2 -1 -2 -3 0 -2 1 -3 2 0 1 2 0 3 3 1 2 1 0 0 0 1 1 2 -2 1 z M 82 179 l -1 1 -2 0 0 -1 0 1 1 -1 z M 241 178 l 4 1 2 1 0 0 -1 2 -2 2 -3 0 -4 1 -3 -1 1 -1 1 -2 -1 -1 1 0 2 -2 z M 258 176 l 1 2 3 2 3 2 1 2 0 0 0 1 1 1 0 3 -1 2 0 0 0 0 0 0 1 2 2 4 0 4 -1 4 -2 2 0 0 0 0 -1 0 -2 -1 -1 0 0 1 -2 0 -4 0 -2 0 -2 -3 -1 -2 0 0 2 -1 2 -1 0 -2 -1 -2 -2 -3 -2 -1 -1 -2 1 -5 0 -3 1 -2 2 -2 3 -1 1 -1 z M 76 170 l 2 1 -1 0 -1 2 -3 2 0 1 -1 -2 1 -2 z M 75 152 l 3 0 1 3 -2 1 -2 2 -1 3 0 -1 -1 0 0 0 0 0 -1 0 -4 -2 -1 -3 0 -3 0 1 0 -1 2 1 1 0 2 -1 z " />
<path id="광주광역시" stroke="#ffffff" fill="#56bf77" stroke-width="2" stroke-linejoin="round" d="M 290 520 l -1 2 2 0 1 1 3 1 2 -1 0 0 0 0 0 0 1 0 2 -1 1 -1 0 0 2 -1 4 0 2 1 2 4 1 3 2 1 3 1 0 2 0 4 -1 2 -2 2 -2 2 -1 1 -3 0 -1 -1 -2 0 -2 1 -4 1 -2 1 -2 1 -1 0 -1 0 -1 0 -2 -1 -1 0 1 -2 0 -1 -3 -3 -4 0 -2 0 -2 -1 0 0 -1 -2 0 -2 -1 0 2 -2 1 -4 1 -2 2 -1 2 -1 0 0 1 -1 1 -3 z " />
<path id="대전광역시" stroke="#ffffff" fill="#38b45f" stroke-width="2" stroke-linejoin="round" d="M 360 355 l 0 4 4 1 3 -2 2 -1 0 1 2 2 0 1 -1 2 0 1 1 1 2 -1 2 1 1 2 -2 1 -1 2 -1 4 -1 4 -1 1 1 1 -1 0 0 1 0 2 0 1 0 1 -1 4 -2 3 -2 2 -3 -2 -2 -2 -1 -1 0 -1 0 0 0 -1 0 -1 -3 -1 0 5 -1 2 -1 2 -1 2 -1 -3 -1 -1 -2 -2 -2 -2 0 -1 1 -1 -2 -1 -2 -3 1 -4 1 -4 1 -3 0 -4 1 -2 2 -1 3 -1 2 -2 1 -2 0 -2 0 0 0 -1 z " />
<path id="울산광역시" stroke="#ffffff" fill="#2fa653" stroke-width="2" stroke-linejoin="round" d="M 572 490 l 1 3 2 1 -2 1 0 4 -1 2 2 2 0 0 -2 1 -2 2 -2 2 -1 -1 -1 -1 -2 -5 -2 0 -5 0 0 -4 -1 -3 -1 0 0 0 -1 0 -4 -1 -1 -2 -2 -2 -2 -3 -2 -1 -3 -1 0 -1 0 -1 -2 0 -3 0 -2 -2 -2 -2 2 -1 2 -2 1 0 0 -1 0 -1 0 -2 -2 -1 2 -2 2 -1 4 -1 -1 -3 2 -3 3 -2 2 -1 0 0 0 0 2 -1 3 1 3 -1 3 2 2 1 1 4 1 2 2 0 2 0 0 0 2 -1 4 -2 4 1 4 1 3 -1 -1 2 -1 2 0 2 2 1 0 5 0 3 -1 3 -1 1 1 0 -1 2 -1 0 1 0 0 0 0 0 0 0 0 1 1 1 -2 1 -2 2 -1 -1 0 -1 1 -1 -1 -1 -1 -3 -2 -2 -1 0 0 0 1 1 -1 1 1 1 1 2 -2 0 -1 -1 1 1 1 0 0 0 1 1 -1 3 z " />
<path id="세종특별자치시" stroke="#ffffff" fill="#269847" stroke-width="2" stroke-linejoin="round" d="M 336 341 l -1 -1 -1 -4 0 -4 0 -4 -3 -2 0 0 3 -3 4 1 3 1 1 1 0 0 1 1 0 0 0 0 2 1 4 0 0 4 -2 2 0 1 1 1 1 3 1 3 2 2 1 1 1 0 1 0 0 0 2 0 0 0 0 0 1 2 2 1 0 3 0 4 -4 1 0 1 0 0 0 2 -1 2 -2 2 -3 1 -2 1 -3 1 -2 -1 0 0 0 0 0 0 0 0 -2 -1 -2 -2 -1 -3 -1 -4 -1 -1 0 0 0 0 0 0 0 -1 0 0 0 0 -1 -1 1 -1 0 -2 0 0 0 0 1 -2 1 -4 -1 -2 0 1 z " />
<path id="경기도" stroke="#ffffff" fill="#1e8b3c" stroke-width="2" stroke-linejoin="round" d="M 270 279 l 0 0 0 -1 0 0 z M 259 274 l -1 -1 0 0 0 0 z M 277 263 l 1 1 0 0 -1 1 z M 290 249 l 0 0 -1 0 0 0 z M 281 248 l 0 3 0 3 0 -3 -2 -3 -1 1 -2 0 -3 -1 4 1 1 0 0 0 0 0 z M 315 128 l 1 -1 0 0 0 0 0 0 0 0 0 0 0 0 z M 322 126 l 0 0 0 0 0 0 z M 322 125 l 0 1 0 0 0 0 z M 322 124 l -2 -1 0 0 0 0 z M 316 123 l 1 0 -1 0 0 0 z M 323 123 l 1 0 0 0 0 0 z M 324 122 l 0 0 0 0 0 0 0 0 0 0 0 0 0 0 z M 321 122 l -1 0 0 1 0 -1 z M 329 202 l -1 -2 0 -2 0 0 0 -1 0 -1 -1 -1 -2 0 -1 0 -1 0 -1 0 -3 -1 -1 3 -2 2 0 2 -2 2 -1 -3 -2 0 -3 1 0 4 -2 3 -2 2 -2 1 -1 -1 -2 -2 -2 -1 0 -1 -1 3 -5 0 -3 -1 -1 -2 -3 -2 -2 -2 -1 0 -2 3 -1 1 0 0 -1 0 -2 2 -2 -1 0 -1 -1 1 0 -1 -1 1 -1 -3 0 -2 -1 -1 0 -2 0 0 0 -2 -2 -4 0 -4 0 -3 1 -4 3 1 1 2 4 0 2 -2 1 0 3 -2 1 -3 0 -4 1 -4 0 -4 -1 -4 1 -3 3 -1 3 -1 2 -1 2 0 0 0 0 0 0 0 1 0 4 -2 -2 0 0 0 0 0 2 -1 1 -2 1 -1 0 0 1 -1 1 -3 1 -3 0 -3 2 -2 1 -2 4 0 3 -1 0 -3 2 -3 1 -2 -1 -1 0 0 0 -1 0 -1 2 0 3 1 0 1 0 -1 0 1 0 -1 2 1 0 -1 0 1 1 -2 0 -1 0 0 0 0 0 0 1 0 0 -1 1 0 2 0 0 0 1 0 0 0 1 0 1 0 2 0 1 0 1 1 1 2 1 3 1 3 1 2 3 1 1 -1 2 -1 3 -1 0 3 -1 2 0 0 0 1 2 1 2 2 2 1 1 -1 3 -1 3 0 4 0 1 4 0 4 1 3 1 2 2 1 3 1 3 1 1 3 4 1 2 2 1 2 0 3 -1 3 -2 2 -2 1 -1 1 -3 2 0 2 1 2 -1 1 -1 2 2 3 -1 2 -1 2 -1 2 2 -1 0 1 1 0 2 -1 0 3 -1 4 -1 4 2 2 2 0 2 -2 3 0 2 2 2 1 2 2 2 2 3 1 4 0 3 1 2 2 3 1 -1 2 -3 1 -2 2 -2 3 2 2 1 2 1 3 -1 4 -1 2 0 1 -2 4 0 4 -1 4 0 3 0 4 -1 2 0 1 0 1 -1 1 -1 3 -2 2 -1 2 -1 3 -2 0 -2 -2 -2 0 0 3 -1 4 -3 2 1 1 0 0 0 1 0 0 -2 0 -2 1 0 1 0 0 0 1 -2 0 -2 -1 0 0 0 0 -1 0 0 0 0 0 -2 0 -3 0 -2 2 -1 3 -4 2 -2 1 0 1 0 1 1 2 -3 1 -3 1 -2 2 -2 1 -2 4 -1 -1 0 0 0 0 -2 -2 -4 -1 -1 -2 -3 -2 -3 -1 -1 -1 -1 1 -1 0 -1 -1 -2 1 0 1 0 1 -1 0 -2 1 0 0 -1 0 -2 1 -3 0 -5 1 -4 1 -3 3 0 -2 -3 0 -1 2 -2 -2 -2 -1 1 -5 -1 -4 -3 -1 -1 -1 0 1 0 -1 0 1 0 -2 0 -3 -4 -1 0 -2 -2 -3 -2 -2 -2 -2 -2 -3 1 -3 -3 -1 0 -2 1 -2 -2 -1 0 -1 0 1 0 -2 -2 -2 0 0 0 0 -2 -1 -3 0 1 0 1 2 -3 0 -1 3 0 -1 -1 -1 0 0 -1 0 1 -1 0 -1 0 0 -1 0 -1 -2 3 -1 0 -2 -2 -2 0 -1 1 0 0 0 0 0 0 0 1 1 1 -1 -1 0 1 -1 3 -2 1 -1 0 1 -3 2 -1 2 3 2 2 2 2 2 1 1 0 0 0 0 0 0 0 1 -1 -3 2 3 -1 3 3 0 0 -2 -1 -3 -1 -1 1 -1 0 0 0 0 2 -2 2 0 1 1 1 0 1 0 3 2 2 0 0 2 -1 1 0 0 0 0 0 1 -1 0 2 -1 0 -3 2 -4 1 0 0 -1 0 -1 0 0 1 1 3 2 0 0 1 0 3 1 -2 -2 -3 -1 -2 -2 -3 -1 -4 0 -2 -1 -1 -1 -1 1 -1 -1 -3 -1 -3 0 4 -2 -1 -2 3 0 3 -5 1 0 -1 0 2 -1 4 1 0 -2 -1 1 -1 0 -1 -3 1 -1 0 -1 0 0 0 0 0 -1 1 -1 0 -2 -3 -2 0 -4 1 -1 0 0 0 0 0 0 0 -2 1 -3 1 1 2 1 2 1 1 4 0 3 3 0 2 -2 0 2 1 2 2 3 4 0 3 0 2 -2 2 -1 1 1 1 0 1 -1 1 3 1 2 2 0 0 0 0 0 1 -2 2 -2 0 0 1 0 0 0 1 0 1 -1 2 -2 0 -3 1 -4 2 -2 1 -2 -1 -2 -1 0 -2 1 -4 1 0 -3 1 -4 z M 317 129 l -1 -1 0 0 0 0 0 0 0 1 0 0 0 0 z M 317 129 l -1 0 0 0 0 0 z M 313 137 l 0 -1 -1 0 1 0 -1 1 0 -1 0 0 0 0 0 0 0 1 z M 306 144 l -1 -1 0 0 0 0 z M 304 147 l 2 -1 0 -2 -1 0 0 0 0 0 0 0 0 0 0 0 -1 1 1 0 0 0 0 0 0 0 1 0 0 0 0 0 0 0 0 0 -1 0 -1 0 1 0 0 0 0 0 -1 1 1 0 z M 300 153 l 0 -1 0 1 0 0 0 0 0 0 0 0 0 0 z M 294 264 l 0 0 -4 1 -1 2 -2 2 -3 2 1 2 4 4 4 2 0 0 0 0 1 -1 -2 -1 1 -3 -1 -3 3 -2 2 -1 1 0 -2 -2 z M 327 121 l -3 0 0 0 0 0 z M 324 121 l 0 0 0 0 0 -1 z M 324 119 l 0 1 0 0 0 0 z M 325 119 l 1 -1 0 0 1 0 0 1 1 0 0 0 0 1 0 0 0 0 0 0 0 0 0 0 0 0 0 0 0 0 0 0 0 1 0 0 0 0 -1 -1 -1 2 0 -1 0 1 0 0 0 0 z M 329 117 l 1 1 0 0 0 0 -1 0 0 1 -1 -1 0 0 0 0 0 0 0 0 0 0 0 0 0 0 0 -1 -1 0 z " />
<path id="충청북도" stroke="#ffffff" fill="#177f32" stroke-width="2" stroke-linejoin="round" d="M 422 253 l 0 0 1 0 3 1 1 3 1 1 -1 1 1 2 2 0 3 0 2 -1 1 -2 2 -2 1 1 2 1 2 -2 2 -2 4 2 1 1 1 -1 0 1 2 1 4 0 2 1 0 1 0 1 0 -1 -2 2 -3 2 -1 2 3 3 2 -2 3 -1 4 0 2 2 0 1 0 0 1 2 1 2 2 -1 0 0 1 0 1 0 4 -1 2 1 1 1 4 2 3 1 0 0 1 0 0 0 1 0 0 0 0 0 2 -1 1 2 3 1 -2 1 -1 1 -2 0 -1 0 -1 1 -3 1 -1 4 -2 2 -2 1 -2 2 -2 1 -2 2 -2 3 -1 3 -1 2 0 1 2 2 -1 3 -1 2 -1 2 -5 0 -3 0 -3 -1 -1 -2 -2 -2 -2 -2 -3 0 -1 2 -2 1 0 2 1 1 -2 1 -3 -1 0 0 -1 0 -1 0 0 0 -1 -1 -2 0 -2 1 -2 2 -3 0 -2 4 -1 2 0 1 1 2 2 2 1 1 -2 1 -4 -2 -4 0 -2 -2 0 0 -1 2 -2 3 -3 1 -2 1 0 1 0 0 0 0 0 0 2 0 1 1 2 2 0 3 0 2 -1 1 -2 -2 -2 -2 -1 -2 -1 2 -2 1 1 2 0 0 -2 1 -3 1 0 3 3 1 2 1 2 3 1 1 2 2 0 3 -2 1 0 3 -1 5 0 4 1 3 1 2 0 1 -2 2 -2 1 0 0 0 0 -1 2 0 4 3 1 3 -1 3 1 2 2 4 1 3 -1 3 1 -1 2 0 0 0 1 0 0 1 1 1 3 -4 0 -3 1 0 4 1 1 0 1 0 1 -2 4 -1 3 -1 0 1 2 0 1 -2 2 -4 1 -1 1 -3 2 -4 -1 -4 1 -2 1 -2 1 -1 -2 -2 -1 -3 -1 -2 -2 -2 1 0 1 -2 -2 -2 -1 -1 -3 -1 -4 -2 -1 0 -3 0 -4 0 -3 -1 -4 -4 -1 -1 -2 -1 0 -3 2 -2 0 1 -4 0 -1 0 -1 0 -2 0 -1 1 0 -1 -1 1 -1 1 -4 1 -4 1 -2 2 -1 -1 -2 -2 -1 -2 1 -1 -1 0 -1 1 -2 0 -1 -2 -2 0 -1 -2 1 -3 2 -4 -1 0 -4 0 -4 0 -3 -2 -1 -1 -2 0 0 0 0 -2 0 0 0 -1 0 -1 0 -1 -1 -2 -2 -1 -3 -1 -3 -1 -1 0 -1 2 -2 0 -4 1 -3 2 -2 2 -2 3 -2 4 1 0 -3 -1 -3 -3 -2 -2 -2 -2 -1 -1 -3 -2 -1 0 -2 0 0 -1 -2 1 -4 2 -1 2 -2 3 -1 3 -1 -1 -2 0 -1 0 -1 2 -1 4 -2 1 -3 2 -2 3 0 2 0 0 0 0 0 1 0 0 0 0 0 2 1 2 0 0 -1 0 0 0 -1 2 -1 2 0 0 0 0 -1 0 0 -1 -1 3 -2 1 -4 0 -3 2 0 2 2 2 0 1 -3 1 -2 2 -2 2 -2 0 1 1 2 1 3 4 2 4 -2 4 0 3 0 2 -2 1 -1 0 -3 -1 -3 0 -1 3 -2 2 -1 1 0 z " />
<path id="충청남도" stroke="#ffffff" fill="#117228" stroke-width="2" stroke-linejoin="round" d="M 205 388 l -1 0 1 0 0 -1 z M 211 390 l 1 0 0 0 0 1 z M 217 389 l 2 -1 -1 1 -2 1 z M 238 383 l 0 1 0 0 -1 0 z M 248 376 l 0 0 -1 0 -1 -1 1 -1 0 -1 0 0 0 -1 z M 257 371 l 2 1 -1 0 0 0 0 0 0 0 -1 0 -1 0 -1 -1 0 0 -3 0 -1 -1 2 0 2 -1 -1 0 z M 272 283 l 1 1 4 2 2 1 6 0 0 2 1 -1 -1 -1 1 0 1 2 2 -1 0 0 1 1 5 -1 0 6 1 2 3 2 -1 3 4 2 1 -2 4 0 3 -3 4 -1 5 -1 3 0 2 -1 1 0 0 0 2 -1 1 0 0 -1 0 -1 2 -1 1 1 1 0 1 -1 1 1 3 1 3 2 1 2 4 1 2 2 0 0 0 0 2 2 1 1 0 0 0 2 2 1 1 3 2 1 2 2 3 2 1 3 0 3 -4 -1 -3 2 -2 2 -2 2 -1 3 -4 0 -2 -1 0 0 0 0 -1 -1 0 0 -1 -1 -3 -1 -4 -1 -3 3 0 0 3 2 0 4 0 4 1 4 1 1 1 1 0 -1 1 2 -1 4 -1 2 0 0 0 0 0 2 -1 1 1 1 0 0 0 0 0 1 0 0 0 0 0 0 1 1 1 4 1 3 2 2 2 1 0 0 0 0 0 0 0 0 2 1 3 -1 -1 2 0 4 -1 3 -1 4 -1 4 2 3 2 1 -1 1 0 1 2 2 2 2 1 1 1 3 1 -2 1 -2 1 -2 0 -5 3 1 0 1 0 1 0 0 0 1 1 1 2 2 3 2 2 -2 2 -3 2 0 3 -2 1 0 1 2 4 1 1 4 0 3 0 4 0 3 2 1 1 4 1 3 0 3 1 1 -2 1 -1 3 -1 -1 -2 -2 -4 -1 -2 -1 1 2 0 3 -1 2 -2 1 -1 -1 -1 0 -1 1 -2 -1 0 1 -1 0 -1 -3 -1 -3 -2 1 -1 1 0 0 -1 0 -1 -1 -1 -1 -2 -4 -1 -4 -1 -1 1 -1 0 -1 -1 -2 -2 -1 -1 1 -2 1 -4 1 -2 1 0 0 0 0 0 0 1 2 -3 -1 -1 -1 -1 0 0 0 0 0 -1 1 -5 1 -2 1 -1 1 -2 0 -2 -1 -3 -2 0 -3 -2 -3 -3 -1 -3 -1 -5 0 -3 2 -3 0 -1 3 0 4 -1 3 -3 1 -2 1 -2 2 -4 0 -2 2 -2 4 -4 -2 -2 1 -1 -5 -1 -2 -2 -2 -1 -3 2 -1 -1 0 -1 -1 -1 0 -1 -1 -1 -2 -2 -2 -2 0 -5 -1 -2 0 0 -2 2 -1 1 -3 2 -3 -1 -1 0 -2 0 -1 1 -2 0 -3 -1 -3 -1 0 0 0 -1 -2 -1 -2 1 0 0 0 0 0 1 -1 3 -1 4 0 -4 -1 -1 -1 -2 -2 -1 -2 -1 1 -1 0 -1 -2 1 -3 2 -2 2 -1 0 0 0 0 -1 0 0 0 0 0 0 0 -2 1 0 -2 -1 -1 -1 -4 0 -2 0 0 0 -2 0 -2 0 0 -1 -1 0 -4 -1 -3 0 0 0 0 0 0 -1 0 1 0 -1 0 1 0 -3 -1 -2 -1 -3 -2 -2 0 -2 0 0 0 0 0 -1 1 0 -1 -2 2 -1 2 0 0 -1 -1 -1 2 -1 -2 0 -3 1 1 1 -2 -1 -4 -1 -2 -1 0 0 0 0 0 -1 0 0 -2 1 -2 0 0 0 -2 1 -1 0 -1 -1 0 -2 2 -2 1 0 1 0 0 -2 1 -3 2 -4 -1 1 -3 2 -1 4 0 -1 -3 -2 -1 -4 0 -1 3 -2 1 1 -2 0 -1 0 0 0 -1 -1 -1 0 -2 1 -1 0 0 0 0 0 0 1 -1 1 -2 0 -2 1 0 0 -2 -1 -2 1 0 0 0 0 0 1 2 1 3 2 3 -1 -3 0 -3 1 -5 -1 -2 2 -1 -1 0 1 -1 0 -1 0 0 3 0 1 -1 2 1 3 1 0 -3 0 -4 1 -3 1 0 0 1 -1 1 1 0 0 1 0 0 0 1 0 1 0 1 0 1 1 2 0 0 0 0 0 3 -1 1 0 1 0 0 -1 1 0 3 1 1 -2 1 0 2 3 -1 1 0 0 0 0 -2 1 -4 1 0 0 1 0 1 1 1 1 -4 1 -1 3 -1 3 -2 -1 -1 -1 -1 1 -2 0 -1 -1 0 0 0 0 0 -1 0 0 0 -1 0 0 0 0 1 -1 -1 -2 -2 -3 -1 0 -1 3 0 1 1 1 -1 0 -1 0 0 0 -1 -2 0 -3 -1 0 -1 3 -2 3 0 5 0 2 1 -1 0 1 0 1 -2 0 0 2 -2 3 -3 5 0 -2 2 z M 235 302 l 1 -1 1 -2 -1 1 z M 268 403 l 0 0 0 0 0 0 z M 257 365 l 2 0 -1 0 0 0 z M 246 358 l 0 -2 -1 1 0 -2 0 -3 0 -6 -1 -3 1 -3 4 -1 0 4 1 4 0 2 1 1 -1 1 2 1 1 3 1 4 1 1 0 0 0 1 1 2 -1 3 -1 0 -1 -1 -1 0 -1 -1 -1 0 0 1 -1 0 0 0 -1 -3 -2 -1 z M 236 340 l -1 1 0 -1 0 -1 z M 164 336 l -2 -1 0 0 0 0 z M 222 334 l 0 0 0 0 0 0 z M 216 329 l 2 0 0 1 -1 0 -1 0 -1 0 z M 226 329 l -1 1 -1 0 0 0 0 0 0 0 0 0 -1 -1 1 -1 -1 1 z M 246 298 l 1 1 0 0 -1 0 0 0 0 0 z M 259 284 l -1 0 0 -1 0 0 z M 257 279 l 1 0 0 1 -1 1 z " />
<path id="전라남도" stroke="#ffffff" fill="#0c661f" stroke-width="2" stroke-linejoin="round" d="M 307 688 l -1 1 0 -1 0 1 z M 350 679 l 1 1 1 2 -2 -1 z M 349 680 l -1 1 0 0 0 0 0 0 1 2 1 2 1 0 -1 0 -2 -1 -2 -2 1 -2 z M 106 672 l 1 3 2 1 0 1 -2 0 -1 -2 -2 -1 0 -1 z M 271 672 l 0 1 -1 0 0 0 -1 0 1 -1 z M 270 665 l 0 0 0 0 -1 0 -2 3 -1 1 -2 1 -2 -1 -1 -2 1 -3 2 -1 4 1 4 1 1 1 -1 -1 -1 1 z M 324 661 l 0 0 0 1 -1 -1 z M 258 661 l 1 0 -1 0 0 1 z M 277 660 l 1 1 1 2 -2 1 1 1 1 2 -1 3 0 2 0 -1 -1 -1 -1 -1 0 1 -1 -3 1 -4 -1 -2 1 1 z M 261 660 l 0 2 -1 -1 -1 1 -1 0 1 0 z M 289 658 l 1 2 -1 1 0 1 z M 304 658 l 1 1 0 0 0 1 0 0 0 1 1 2 0 3 -3 0 -2 -1 -1 0 -1 1 0 -3 1 -3 z M 147 657 l 0 0 0 1 0 -1 0 0 0 0 z M 189 657 l 0 0 0 1 0 0 z M 268 656 l 3 1 2 3 -1 2 -1 -1 -1 0 0 1 0 1 -2 0 -1 -2 -1 0 0 -1 0 0 0 0 0 0 0 0 0 0 0 0 0 0 0 -1 0 0 1 -1 -1 0 0 0 1 -2 -1 -1 z M 212 654 l 0 0 0 0 0 0 z M 344 654 l 0 2 -1 1 0 0 0 0 0 1 1 0 0 0 0 0 -1 0 -1 0 -1 0 1 -2 1 -2 z M 273 653 l 1 1 0 1 -2 0 -1 -1 0 0 1 -1 0 1 z M 198 653 l 0 1 1 -1 -1 1 -1 1 0 -1 0 0 0 0 0 0 0 0 z M 211 653 l 1 1 0 0 -2 1 -2 -1 1 0 1 0 0 0 z M 255 650 l 0 0 0 0 0 0 z M 216 650 l 1 0 -1 0 0 0 z M 267 649 l -1 1 0 0 -1 -1 z M 204 649 l 1 1 -1 0 0 0 1 0 0 0 0 1 -1 0 0 -1 -1 0 z M 355 649 l 1 0 -1 1 -1 1 z M 261 646 l 0 0 0 0 0 0 z M 270 647 l 0 0 0 0 0 1 0 0 -1 -1 1 -1 1 0 z M 203 645 l 0 1 -1 0 0 0 z M 327 646 l -1 0 0 0 0 0 z M 211 645 l 3 0 0 3 -3 0 -4 -1 1 -1 1 -1 -1 -1 1 0 -1 0 z M 305 643 l 0 0 0 0 0 0 z M 324 642 l 0 0 0 0 0 0 z M 222 642 l 0 0 0 0 0 0 z M 314 642 l 1 0 0 0 0 0 1 0 0 0 1 1 -2 2 -2 1 -1 0 -1 -2 1 -2 0 0 0 0 z M 207 640 l 3 1 0 2 -1 -1 0 0 -1 0 0 0 -2 1 -1 -1 -1 0 z M 299 640 l 4 1 1 1 -1 0 -1 2 -2 1 -2 1 0 -1 -3 -2 -2 1 0 0 -2 -1 -2 -1 0 0 0 0 0 0 1 0 1 0 1 -1 1 1 1 0 2 -2 z M 315 639 l 2 0 1 -2 2 1 0 0 0 1 1 0 4 2 -2 0 1 1 0 0 0 0 0 0 0 0 0 0 0 0 -1 0 -2 1 -1 2 0 0 0 -1 1 -1 0 -2 -1 1 -1 0 -1 -1 z M 325 636 l -1 1 0 -1 0 0 z M 321 634 l 0 1 -1 0 0 -1 z M 239 634 l -1 0 0 0 0 0 0 0 0 1 1 0 -2 1 z M 277 643 l -1 -2 0 -5 1 -2 3 -1 3 1 2 1 0 1 0 0 1 1 0 3 2 3 2 2 -1 1 0 0 0 1 0 0 1 1 -3 -1 -1 -1 0 0 0 0 0 1 -3 0 -2 0 -2 -3 z M 310 633 l -1 2 -1 1 1 1 -1 1 -2 1 -2 0 -2 -1 -1 -2 0 -1 0 -1 0 0 0 0 0 0 0 0 1 1 -1 -1 0 -2 0 0 0 0 2 1 2 1 0 -1 1 1 0 1 1 -1 0 0 0 0 1 1 0 -1 z M 343 632 l 1 1 1 1 0 0 0 2 -2 -1 0 -1 1 0 z M 246 631 l 0 0 0 0 -1 0 1 0 0 0 z M 282 630 l 0 1 0 0 0 0 z M 325 630 l 0 1 -1 1 0 0 0 0 0 0 0 -1 0 0 z M 298 629 l 0 2 0 0 -1 0 0 0 -1 -1 0 1 3 2 1 2 0 -1 0 1 0 -1 -2 1 -3 1 -3 1 -1 2 -1 -2 -2 -2 1 -1 1 -2 2 -2 1 -1 0 0 2 0 z M 212 627 l 0 0 0 0 0 0 0 0 0 0 0 0 z M 321 626 l 2 4 0 2 -1 -2 -1 1 0 0 0 0 -1 0 0 0 0 -3 -1 -1 0 0 0 0 0 0 0 -1 z M 403 629 l 1 -3 0 1 0 0 0 0 0 0 1 0 0 0 0 0 0 0 0 1 0 0 0 2 -2 2 z M 251 625 l 0 0 0 0 0 0 0 -1 0 0 z M 366 624 l 2 1 4 0 2 2 0 0 0 0 1 1 -1 2 0 1 -1 -1 -2 1 -1 0 -1 -2 -1 -2 -1 0 0 0 -1 0 0 0 0 0 0 0 -1 0 1 0 z M 341 622 l 0 3 -1 3 -2 1 -5 0 -1 0 0 0 -1 1 0 1 -2 -2 -2 -2 0 -2 1 -2 0 -1 0 0 1 0 2 1 1 0 0 0 0 0 0 0 1 0 2 -1 3 -1 z M 404 622 l 2 -1 0 2 0 0 -1 0 0 0 0 0 0 0 0 0 -1 0 z M 211 620 l 1 0 0 1 1 1 -1 1 -2 1 z M 330 618 l -1 1 -1 0 0 0 -1 0 0 -1 z M 364 614 l 4 1 0 1 -2 1 1 1 -1 0 1 1 0 0 0 0 1 0 0 0 1 0 0 0 1 0 1 2 -3 1 -2 0 1 1 0 0 -1 0 0 0 0 0 -1 -2 -1 -4 z M 400 619 l 0 0 0 0 0 0 1 0 0 0 2 2 -3 0 -3 -1 0 -1 0 0 0 0 0 0 0 0 0 0 -1 -2 -3 -1 0 -1 1 0 0 0 0 0 0 0 0 0 0 0 0 0 0 0 2 -1 3 0 1 2 2 2 z M 397 611 l 0 1 0 0 -1 0 z M 397 610 l 0 0 0 0 0 1 z M 365 611 l 0 1 0 -1 0 0 z M 193 610 l 0 0 0 0 0 0 z M 391 611 l -1 1 -1 1 1 0 -2 -1 -1 -1 -1 0 2 -1 3 1 1 1 z M 234 608 l 3 1 2 2 0 1 0 0 3 1 1 0 0 1 1 0 1 3 2 1 0 0 0 1 0 0 0 1 0 1 -1 1 -1 3 0 2 0 0 -1 2 -1 1 0 0 0 0 -1 2 -2 -2 0 2 -2 0 -4 2 -1 1 -3 1 -3 1 1 0 -1 1 -2 1 0 -1 -1 1 -1 0 -1 -1 -2 0 0 -1 0 0 0 0 0 -1 1 -1 -2 0 -2 -2 -1 -1 0 0 0 -1 0 -2 0 -1 0 0 0 -1 2 -1 1 1 0 0 0 0 0 -2 2 -2 2 -1 1 -1 2 -3 1 2 1 0 0 0 0 0 0 -1 -1 -1 2 -1 0 -2 1 0 0 0 0 0 1 0 1 -2 z M 382 607 l 0 1 0 0 0 -1 z M 375 606 l -1 0 2 -1 2 1 -1 1 -1 1 z M 235 604 l 0 0 0 0 1 1 z M 192 604 l 1 1 0 0 0 0 -1 -1 0 0 z M 375 604 l 0 0 0 0 -1 -1 z M 185 603 l 0 1 1 0 -1 0 z M 228 603 l 1 0 0 1 0 0 0 0 -1 -1 z M 212 602 l 2 1 1 2 2 1 1 1 0 0 -1 2 -1 1 0 0 0 1 0 0 0 1 -2 1 -2 1 0 0 0 0 0 1 -2 0 -2 -1 3 -1 -1 -2 -1 1 -1 0 1 0 1 -1 4 -2 -1 -3 -2 -2 z M 372 603 l 1 1 0 0 0 0 z M 190 603 l 0 1 -3 2 -2 0 1 -1 2 -2 z M 206 603 l 0 1 -2 0 0 0 1 0 0 0 z M 208 601 l 1 1 2 3 1 2 0 0 0 0 0 1 0 0 -2 2 -2 -1 -1 -2 0 1 1 -1 0 0 0 0 0 -1 -1 -1 z M 202 601 l -2 0 1 -1 0 0 z M 223 597 l 2 1 1 3 2 0 -2 1 -4 1 -1 1 -1 -1 0 1 -1 0 0 -2 1 -1 -1 -1 0 -1 1 -1 0 0 z M 227 592 l 0 0 1 1 -2 2 -2 -1 1 0 z M 141 593 l 1 -1 1 0 0 0 0 1 0 0 0 0 1 0 1 -1 0 1 1 -1 -1 2 -1 2 -1 0 0 0 -1 1 -2 3 -1 -1 0 -1 0 -1 0 -1 z M 218 591 l -1 2 -1 -1 0 0 z M 218 591 l 2 0 0 1 0 0 0 0 0 0 z M 395 591 l 1 2 1 0 -1 0 z M 398 597 l 1 -3 -1 -3 -1 0 0 0 0 -1 0 0 0 0 0 0 0 -1 2 1 3 1 0 2 -1 0 0 0 0 -1 0 0 -1 1 1 2 0 1 0 0 2 2 0 4 0 4 1 1 0 0 -2 1 -3 0 -1 -1 -1 0 0 0 -1 -2 -1 -3 1 -3 z M 119 589 l -2 4 -2 1 2 -1 z M 203 588 l 0 1 2 2 1 1 0 0 0 0 1 0 0 0 0 0 -1 2 -2 2 -1 1 -3 1 1 -1 0 0 0 0 0 -1 -1 0 0 0 0 0 -1 0 -1 -1 -1 1 0 0 0 0 0 -1 0 0 0 -1 -1 -1 1 -2 2 -1 2 -2 z M 378 588 l 0 0 0 0 0 0 0 0 0 0 z M 208 586 l 0 1 0 0 1 0 0 2 -1 0 z M 146 586 l 1 1 -1 1 1 0 0 0 0 0 0 0 0 0 0 1 -1 0 0 -1 1 -1 0 0 0 0 z M 210 585 l 2 1 0 1 0 0 0 0 0 0 z M 370 585 l 0 0 0 0 0 0 0 0 1 1 z M 378 585 l -1 0 0 -1 0 0 0 0 1 1 z M 143 584 l 1 1 -1 -1 0 0 z M 208 584 l 1 0 0 1 -1 0 z M 212 584 l 0 0 0 0 -1 1 z M 215 583 l 3 1 2 0 2 1 3 2 0 3 0 3 -2 -1 -2 -2 -3 0 -3 1 -1 -3 0 0 0 -2 z M 362 582 l 1 1 0 -1 0 1 z M 366 582 l 0 0 0 0 0 0 z M 246 583 l 1 1 0 0 -1 2 z M 243 581 l 0 0 0 1 0 -1 0 0 0 -1 z M 367 580 l 0 1 -2 1 1 -1 0 0 0 -1 z M 206 579 l -1 2 -1 1 1 1 0 1 0 0 -1 0 -2 1 -1 -1 0 0 0 0 0 1 -2 1 0 2 0 0 -1 1 -3 0 -1 -3 0 -2 1 0 0 -1 4 -1 2 -1 2 -2 z M 223 579 l 1 1 0 1 -1 0 1 1 0 0 0 0 0 1 0 1 -1 0 0 0 -1 0 -1 0 -1 -1 -2 -1 -3 -1 0 -1 1 1 0 -1 0 1 0 0 1 -1 0 1 2 -1 z M 224 577 l 0 0 0 0 0 0 z M 212 576 l 0 0 1 1 0 0 0 1 -1 0 0 -1 0 0 0 0 0 0 z M 219 569 l 1 0 1 0 1 0 0 2 0 2 0 0 0 0 0 0 -1 2 -2 0 -1 4 -2 0 0 0 0 -1 0 0 -1 -1 -1 -2 1 -3 3 -1 z M 396 568 l 2 0 0 2 -3 1 -2 -1 0 -2 z M 239 563 l 1 1 1 1 1 0 1 0 1 2 -2 1 0 1 -1 0 0 1 4 1 1 4 -1 2 -2 0 -1 0 0 0 1 -1 1 -1 -1 -2 -1 0 -1 0 -1 -1 -1 0 -1 1 -1 -1 -1 1 -2 1 -3 -1 0 -1 2 -1 3 -1 2 -2 1 0 0 -1 0 0 -1 -1 z M 391 564 l -1 2 -1 0 0 -2 z M 225 562 l 3 1 0 0 0 0 z M 228 561 l 0 1 0 0 0 -1 z M 230 561 l 2 0 1 2 -2 0 z M 216 566 l 1 2 -1 1 0 0 0 0 0 0 -1 0 -1 2 -2 1 -1 1 -2 -2 -1 -1 0 0 -1 0 -3 0 -1 -1 0 0 1 0 0 0 0 0 0 0 1 0 1 -2 2 -3 2 0 2 0 0 0 0 0 0 0 1 -2 0 -1 0 0 1 0 1 1 1 1 0 1 1 1 -1 0 z M 399 567 l -5 -2 -1 0 0 -1 1 -2 2 -1 1 1 1 1 4 -2 0 8 z M 400 568 l 2 -1 -1 -2 -1 0 z M 400 560 l -1 2 -2 -1 0 0 z M 224 558 l 0 1 0 1 0 0 z M 237 557 l 1 2 0 3 -1 -1 0 0 0 -2 -2 -1 0 -1 1 0 0 0 z M 232 553 l 0 1 -1 0 0 -1 z M 234 552 l 1 1 0 0 0 1 1 1 -2 0 z M 221 549 l 1 1 0 0 0 0 0 -1 1 1 2 2 0 4 -2 1 -1 2 -2 1 0 0 0 -1 1 -1 0 -1 0 0 1 -3 -1 -1 -3 -1 2 -2 0 -1 1 1 z M 223 545 l 2 0 1 1 0 0 1 0 1 2 0 2 -1 0 -2 -1 -3 -1 -1 -2 0 0 z M 198 541 l 0 1 0 0 0 0 z M 210 541 l -1 1 0 0 0 0 0 0 -1 -1 0 0 0 -1 1 -1 -1 0 z M 212 538 l 0 0 0 0 0 0 z M 195 534 l 2 0 0 0 0 0 -1 0 0 1 z M 223 533 l 1 0 -1 1 -2 1 -1 0 0 0 0 2 -1 4 0 3 -1 2 0 0 -1 0 -1 -1 -2 -1 -2 0 0 0 -1 0 2 -1 -1 -2 0 -1 0 -1 2 0 2 -1 1 -2 2 -2 z M 229 534 l -1 0 0 0 0 0 -1 1 0 -1 z M 211 506 l -2 2 0 -1 -1 0 1 -1 -1 -1 z M 213 503 l 0 1 0 -1 0 0 z M 213 503 l -1 0 0 0 0 0 z M 383 568 l -2 3 1 1 2 2 2 0 -1 1 2 1 3 -1 2 -3 3 0 1 1 0 -1 1 1 0 0 0 0 0 -1 3 0 1 3 -1 4 -2 3 0 2 0 0 1 3 0 1 0 0 -1 1 -3 1 -3 0 -2 -2 0 0 0 0 -2 -1 -1 3 -1 1 0 1 0 1 0 -1 0 0 -1 0 0 0 0 0 0 0 -1 2 2 2 0 0 0 0 0 0 -1 0 0 0 -1 0 0 0 1 2 0 2 1 0 -1 1 1 0 -1 1 1 1 0 0 0 0 -2 -1 -4 -1 -2 -1 -1 -2 -1 -2 0 0 1 -1 2 -1 -2 -1 0 -1 -1 0 1 -2 2 -1 1 -3 -1 -2 -1 -1 0 -1 -1 -1 -1 -2 -2 0 0 -2 1 -2 -2 -1 0 -3 0 -3 -2 2 -2 1 0 3 -5 0 -3 2 -2 1 0 0 -2 -1 -3 -1 2 1 2 1 3 1 2 1 -2 0 -1 2 0 -1 -1 1 0 0 0 1 0 0 0 0 0 0 0 0 -1 1 1 1 0 2 -1 1 -1 3 2 1 0 1 0 0 0 0 0 0 2 2 2 2 -1 0 0 0 2 1 3 2 1 1 0 0 0 1 -2 0 0 0 0 0 3 1 1 1 0 0 0 1 0 0 0 0 0 0 0 1 1 1 0 2 -2 2 -3 -1 1 0 -1 -1 0 0 0 0 0 -1 -2 2 -3 1 2 1 0 1 -1 -1 0 0 -1 1 -1 -1 1 2 2 0 0 0 0 1 0 2 -1 1 1 1 -1 0 1 0 0 1 0 0 -2 -1 -2 1 0 0 0 0 0 0 -1 0 0 1 1 2 -1 0 -1 1 -1 -1 -1 0 -1 1 -1 -1 -1 2 -1 1 1 1 0 1 -2 0 -1 -2 -2 -2 -1 0 0 0 0 -2 -2 -3 -2 -1 -3 -1 0 0 -1 1 -4 0 -4 -1 -1 -3 2 -4 1 -2 0 0 1 1 2 -3 0 -2 2 -2 4 -3 1 -3 2 -2 -1 -1 1 0 1 0 2 1 0 1 0 0 0 1 0 0 0 2 0 1 0 1 3 -1 1 -2 0 0 0 0 1 -2 0 -4 0 -3 -2 0 -2 2 -2 0 0 -1 -1 1 -2 -2 -1 -1 -3 2 -1 2 -1 3 -3 2 -4 -1 -2 2 0 0 0 0 -2 1 -3 2 0 1 0 0 -2 1 -2 2 -5 0 -3 0 1 1 0 0 1 0 2 1 1 1 0 0 -2 4 1 1 1 0 0 0 0 0 0 0 0 0 -1 2 -3 2 0 1 1 2 -1 1 0 2 1 1 0 2 -2 0 -2 -1 0 2 0 2 -1 0 -1 -1 -5 0 0 3 -2 -1 -2 -1 0 0 0 -1 -1 1 0 0 0 0 0 0 -1 0 0 0 -2 -1 -2 -2 1 -1 0 0 0 -1 0 0 0 0 0 0 0 -1 -1 -4 1 -2 1 -2 -1 -1 -1 -3 -1 -3 1 -3 -1 2 -1 3 0 6 0 2 -1 1 0 2 1 1 -2 1 0 3 -2 3 -2 1 -4 2 0 1 -2 -1 -1 0 -2 2 -2 1 0 3 -1 5 -1 3 -3 0 -2 1 -3 2 -1 0 0 -2 0 0 0 -1 1 -1 -1 0 1 -1 0 -2 -1 -1 1 0 -1 -1 -1 0 -2 1 -2 1 0 -2 1 1 0 -1 1 0 -1 -2 1 -1 -1 0 0 -1 0 0 1 1 1 -3 0 -3 -2 0 1 1 -1 0 0 0 -1 -2 -1 -2 1 1 0 -2 -1 -4 0 -4 -2 -1 1 0 0 -1 0 0 0 0 -2 -1 -3 0 -2 1 0 -2 -1 -2 -1 1 -1 -1 -4 -1 -2 0 0 -1 0 0 1 -1 -1 -1 0 0 0 0 -2 -1 0 -4 -2 0 0 -1 0 0 -1 -3 0 -4 1 -2 0 0 1 0 0 -2 1 -4 4 1 1 2 2 2 1 2 2 -1 0 0 0 -1 1 -1 -2 -3 1 -1 0 0 0 -1 2 -1 4 -1 2 -1 -1 -2 -1 1 0 -1 -1 1 -3 1 -3 0 0 -4 1 -1 2 -2 2 -1 0 -1 -1 -2 -1 -2 0 0 0 -2 0 -4 0 -3 -1 -4 -1 -3 0 0 -1 3 0 2 1 1 0 0 0 1 0 0 0 1 0 0 -1 2 -5 -1 -1 -2 -1 -2 0 -1 2 -1 4 -1 -1 -2 -1 1 0 0 0 0 2 -2 3 -2 0 -2 -3 -1 -1 -2 -1 0 1 -2 -1 -1 -1 -1 -2 3 0 2 -1 1 0 0 0 -1 -2 -1 -2 1 0 0 0 0 0 0 1 2 -1 2 -1 1 -1 -2 -1 1 -1 0 1 0 -1 0 0 0 0 0 0 0 0 0 0 0 1 -1 -1 0 1 0 -1 0 1 -1 -1 0 1 -1 0 -1 -2 -1 -1 2 -1 -2 -2 -1 -2 -3 0 0 0 -1 0 0 0 0 0 0 1 -1 2 -1 0 0 0 0 1 0 2 1 4 1 0 -4 1 -2 1 -1 2 2 0 -1 1 0 2 1 2 -2 1 0 0 3 -1 2 0 1 0 1 0 0 0 1 0 0 1 0 1 2 3 0 1 -1 1 0 0 0 -1 1 2 2 -1 1 0 2 2 0 2 -2 2 -3 -1 -1 -1 0 2 -2 -3 -1 -1 -2 -2 -2 -2 -3 -2 -2 0 -1 1 -1 0 -1 0 0 0 0 0 0 1 -2 -2 1 -2 1 0 -2 -3 0 0 -4 3 -1 0 -1 0 0 0 0 -1 0 0 0 0 0 0 1 0 -2 1 -1 -1 0 0 -2 1 0 2 0 1 0 1 -3 1 -3 1 -3 2 -1 3 1 0 1 0 0 -1 0 0 1 1 0 0 -2 -1 -2 -2 -2 0 -4 5 -2 3 2 0 3 1 4 2 1 1 3 1 3 4 0 2 0 0 -1 0 0 1 -1 4 0 3 -1 2 -2 1 0 0 0 2 -1 2 -2 1 -3 1 -2 1 -1 0 -2 -1 -2 2 -2 2 -1 3 -1 4 0 0 2 1 0 1 0 2 0 2 3 1 3 2 2 0 -1 1 0 0 1 0 0 0 0 0 0 1 1 3 -1 0 -2 3 -4 0 -2 1 0 1 0 2 0 0 0 0 0 0 1 0 2 1 2 0 3 -1 1 2 2 1 0 0 0 0 2 -1 4 1 2 3 2 4 0 2 -1 2 -2 3 0 2 1 0 0 0 0 0 0 2 -1 4 2 4 0 4 0 1 -1 0 0 1 0 0 0 2 1 2 0 2 -3 1 -2 3 -1 3 -1 4 1 1 2 3 2 2 1 1 2 2 4 1 2 1 2 1 4 0 3 2 2 1 2 3 2 1 2 1 4 2 2 2 1 2 3 2 1 1 3 1 2 0 2 -2 2 -1 2 -3 0 0 -1 -1 3 -1 2 -2 1 -2 0 0 0 -1 1 0 2 -3 3 0 0 0 -1 -1 -1 2 -1 -2 0 -2 -2 -1 -4 0 0 0 1 0 1 -2 2 -1 2 1 -1 1 0 z M 249 589 l 3 1 4 0 -3 0 -1 -2 0 1 -2 0 0 -1 z M 295 546 l 2 -1 2 -1 4 -1 2 -1 2 0 1 1 3 0 1 -1 2 -2 2 -2 1 -2 0 -4 0 -2 -3 -1 -2 -1 -1 -3 -2 -4 -2 -1 -4 0 -2 1 0 0 -1 1 -2 1 -1 0 0 0 0 0 0 0 -2 1 -3 -1 -1 -1 -2 0 1 -2 -3 0 -1 3 -1 1 0 0 -2 1 -2 1 -1 2 -1 4 -2 2 1 0 0 2 1 2 0 0 2 1 2 0 4 0 3 3 0 1 -1 2 1 0 2 1 1 0 1 0 z " />
<path id="경상북도" stroke="#ffffff" fill="#085a17" stroke-width="2" stroke-linejoin="round" d="M 583 406 l -2 -2 0 -1 1 1 z M 521 277 l 2 -3 3 1 4 0 4 1 1 0 2 1 2 -3 3 -1 3 2 2 1 3 2 1 2 1 0 1 0 1 0 1 0 0 0 1 0 0 -2 -1 -2 0 0 2 -2 2 -2 2 -2 2 -2 2 -1 4 -1 2 3 0 1 0 0 0 1 0 1 1 0 0 0 0 0 1 2 2 2 0 0 1 0 0 2 -1 2 0 0 0 2 0 4 0 3 1 5 0 3 0 3 1 5 2 2 1 1 1 5 1 2 1 1 -1 1 0 0 0 0 0 0 0 1 0 2 1 1 -1 1 0 1 1 1 -1 2 -2 2 -2 2 -1 2 -1 4 0 3 2 4 1 1 -1 0 1 1 0 2 1 4 0 2 0 0 0 0 0 0 -1 2 0 4 0 4 -1 1 -1 2 -2 4 0 0 0 1 -1 0 0 3 0 2 -1 0 0 2 0 4 0 2 0 0 1 2 0 4 0 3 1 2 1 2 0 2 0 0 0 2 3 2 0 2 -1 2 -1 2 -3 1 0 3 1 1 0 0 2 0 3 0 -1 1 -1 0 -1 0 0 1 2 0 -1 2 1 0 0 1 0 0 2 0 2 0 1 -2 3 -2 1 -2 2 -2 1 -2 2 -2 1 0 0 1 0 -1 1 2 1 4 -1 4 -1 2 -1 2 -1 3 -1 3 -1 2 0 1 0 0 0 0 1 2 0 3 -1 -1 0 0 0 1 1 1 -1 4 -1 4 -2 3 0 4 -1 2 0 0 0 1 0 2 -1 3 0 2 0 0 -1 2 -3 1 -4 -1 -4 -1 -4 2 -2 1 0 0 -2 0 -2 0 -1 -2 -1 -4 -2 -1 -3 -2 -3 1 -3 -1 -2 1 0 0 0 0 -2 1 -3 2 -2 3 1 3 -4 1 -2 1 -2 2 -4 0 -1 -1 -3 -1 -2 0 -2 1 -1 -1 -1 0 -1 3 -1 3 -3 0 -3 1 -2 2 -2 0 -2 -1 -3 0 -3 -2 -4 0 -4 1 -4 -1 -2 -2 0 0 0 0 -2 -2 -1 -4 0 -3 0 -5 2 -2 3 -1 3 1 1 3 3 -1 2 -1 2 -1 1 -5 0 -3 2 -2 0 -3 1 -1 0 0 1 -2 2 -1 1 -3 0 -4 -2 -2 0 -1 0 -2 0 -1 0 -1 0 -1 0 -1 -1 -3 -2 -2 -2 -2 1 -3 1 -2 1 -3 2 -2 0 0 0 0 1 0 0 1 2 0 3 1 2 -1 2 -2 2 -2 0 0 0 0 0 -1 0 -1 2 -1 2 0 0 -3 0 -2 -2 -2 -2 -2 -3 0 -2 0 -1 2 -4 0 -4 0 -3 0 -1 -2 -2 0 0 1 -1 -1 -2 1 -1 0 0 -2 0 -2 1 -1 0 0 0 0 0 -1 0 0 -2 -2 -2 0 -2 -1 -4 -1 -2 -2 -2 0 -4 -2 -4 0 -1 2 -2 1 2 2 -1 1 0 2 0 2 2 2 5 0 1 3 2 1 3 0 1 3 0 4 1 4 1 2 0 1 0 2 0 0 0 0 0 1 1 0 1 0 1 0 0 -1 3 0 1 3 -1 3 2 2 0 1 -3 1 -2 2 -2 1 -2 1 -3 -1 0 0 0 0 0 2 1 3 -1 2 -2 2 -1 2 -1 0 0 0 -1 0 -1 -2 0 -4 -4 1 -1 1 -2 2 -2 4 0 2 0 1 2 1 3 0 3 1 2 3 -1 2 -2 0 -3 -1 0 1 -2 1 -2 4 0 1 0 1 2 1 2 2 1 3 -3 1 -5 0 0 3 2 2 2 2 0 3 -3 1 -1 -3 -3 -1 -4 -1 -4 1 -4 1 -3 -1 -3 -1 0 -2 3 -2 1 -3 -1 -4 -2 -2 -1 -2 -2 -2 -2 -2 -2 -3 -2 -2 -2 0 -1 0 -2 0 -4 0 -2 -1 -2 -1 -4 -1 -1 -2 -2 -2 -3 -1 0 -1 1 -1 -1 -1 0 -1 2 -2 0 -4 -1 -2 -1 -2 -1 -3 3 -2 1 -1 4 -1 2 -2 0 -1 -1 -2 1 0 1 -3 2 -4 0 -1 0 -1 -1 -1 0 -4 3 -1 4 0 -1 -3 -1 -1 0 0 0 -1 0 0 1 -2 -3 -1 -3 1 -4 -1 -2 -2 -3 -1 -3 1 -3 -1 0 -4 1 -2 0 0 0 0 2 -1 2 -2 0 -1 -1 -2 -1 -3 0 -4 1 -5 0 -3 2 -1 0 -3 -2 -2 -1 -1 -2 -3 -2 -1 -3 -1 0 -3 3 -1 2 -1 0 0 -1 -2 2 -1 1 -2 1 2 2 2 2 2 1 -1 0 -2 0 -3 -2 -2 -1 -1 -2 0 0 0 0 0 0 0 0 -1 2 -1 3 -1 2 -3 1 -2 0 0 2 2 4 0 4 2 2 -1 -1 -1 -2 -2 -1 -2 0 -1 1 -2 2 -4 3 0 2 -2 2 -1 2 0 1 1 0 0 1 0 1 0 0 0 3 1 2 -1 -1 -1 0 -2 2 -1 1 -2 3 0 2 2 2 2 1 2 3 1 3 0 5 0 1 -2 1 -2 1 -3 -2 -2 0 -1 1 -2 1 -3 2 -3 2 -2 2 -1 2 -2 2 -1 2 -2 1 -4 3 -1 1 -1 1 0 2 0 1 -1 2 -1 3 1 2 2 3 1 2 -1 0 -1 0 -2 1 -1 1 -2 3 0 0 1 0 0 0 0 2 0 1 0 0 1 2 2 2 1 0 0 2 -1 1 1 0 -1 z M 732 208 l 1 1 -1 1 1 1 0 1 0 2 0 0 0 2 -2 1 -1 2 -3 0 -2 0 0 0 0 -1 -3 -1 0 -3 -1 -2 2 -1 1 -1 0 1 0 -1 0 0 1 0 2 -1 z " />
<path id="경상남도" stroke="#ffffff" fill="#054f10" stroke-width="2" stroke-linejoin="round" d="M 474 615 l 0 -1 0 0 1 0 z M 460 604 l -1 0 0 0 0 0 z M 486 603 l 0 1 0 0 0 0 0 0 0 -1 z M 486 603 l 0 0 0 0 0 0 0 -1 0 0 z M 457 603 l 0 1 -1 -1 -1 0 -2 1 0 0 0 0 -1 -1 -1 -1 1 -1 -1 -1 0 0 1 0 0 0 1 0 0 0 0 0 1 0 2 2 -1 0 z M 466 601 l 1 0 -2 -1 -1 0 z M 490 600 l 0 0 0 1 -2 0 z M 430 594 l 2 0 0 0 0 0 z M 445 592 l 1 0 0 0 1 0 1 2 -1 1 0 0 0 -1 0 0 -1 0 z M 470 588 l 0 1 -1 -1 0 0 0 0 0 0 z M 482 588 l 0 0 0 0 -1 0 0 0 -1 0 -1 0 0 0 0 0 -1 -1 z M 485 585 l 2 1 -3 0 -2 -1 0 -1 1 0 z M 483 580 l 0 1 -1 -1 0 0 0 0 z M 481 580 l -1 1 0 -1 0 1 z M 477 579 l 0 2 0 -1 0 1 1 -1 0 1 0 -1 1 0 -2 -2 2 0 -1 0 1 1 2 3 0 2 0 0 -2 1 -1 0 0 0 0 0 -1 -2 z M 484 578 l 0 -1 0 0 1 -1 1 1 0 0 z M 441 576 l 0 1 0 0 -1 0 0 -1 0 0 z M 478 576 l 0 0 0 1 0 0 -1 0 0 0 z M 449 578 l 1 -3 2 1 1 3 -1 2 0 -1 z M 467 576 l 1 2 0 -2 1 1 1 -1 3 0 1 3 -1 3 -1 3 -2 0 0 -1 -1 0 0 -2 -2 -2 0 1 0 0 -1 -1 0 1 0 -1 0 1 0 -1 1 -1 -1 -2 -1 -1 0 1 -1 0 -1 0 0 0 -1 -1 3 -1 2 1 0 0 z M 445 575 l 1 -3 2 0 1 2 z M 429 565 l 0 1 -2 2 0 3 1 0 0 -1 0 -1 2 -1 1 1 1 0 0 0 0 0 0 0 1 2 -1 2 0 0 0 0 0 0 0 0 0 0 0 0 0 0 1 2 -3 0 -3 0 -4 -1 -1 -3 2 -2 0 -1 0 0 1 -2 2 -2 z M 477 565 l 0 -1 1 1 0 0 z M 429 561 l 0 0 0 0 0 0 0 0 0 0 z M 414 561 l 1 0 0 0 0 0 0 0 0 0 0 0 1 1 1 0 0 0 0 0 0 0 0 -1 0 0 0 2 0 4 -1 1 1 0 -1 1 -1 0 0 0 0 2 1 2 1 1 -1 0 1 1 0 0 1 1 2 2 2 0 2 -1 0 0 0 -1 2 0 3 0 1 1 1 -1 1 1 1 1 -1 3 0 -1 0 0 -1 3 1 3 0 1 0 0 0 0 -1 1 -1 3 2 1 0 0 0 0 0 0 -2 1 -2 0 0 -1 0 -1 -2 0 -2 0 0 1 0 0 0 0 -1 0 -2 0 0 -1 -1 -1 1 -1 -1 0 0 -3 0 -2 1 0 -1 -1 0 0 -2 1 -2 0 0 0 0 0 -1 3 0 3 -4 -1 -1 -2 -2 -1 1 -2 0 0 0 0 0 0 0 0 0 -1 0 0 0 -1 0 0 0 0 -1 0 0 -2 0 1 0 -1 0 1 -1 -2 -2 -3 0 -1 0 0 0 -1 0 0 0 0 0 0 0 -1 0 -1 0 0 0 0 0 0 0 0 1 -1 1 -2 0 0 0 -2 3 -1 0 -3 2 -2 0 0 0 0 z M 416 557 l 0 0 1 0 -1 0 z M 506 557 l 0 0 -1 0 0 0 z M 483 562 l -1 -1 0 0 0 -2 0 -1 0 -1 1 0 1 2 0 2 0 0 -1 0 0 0 z M 423 556 l 1 2 0 0 0 -1 0 0 0 0 0 0 1 0 0 1 -2 0 z M 495 556 l -2 0 1 -1 0 0 0 -1 -1 0 0 -1 3 -1 z M 484 564 l 2 1 2 1 1 -1 1 0 0 0 0 0 0 0 0 0 2 1 2 1 -1 -2 -1 -1 -1 -5 1 -2 0 1 3 0 2 -2 1 -1 -1 0 1 -1 0 -1 1 1 0 -1 1 1 0 -2 0 -3 3 0 1 1 0 0 -1 2 -1 4 2 2 1 3 0 0 0 0 0 0 -1 0 0 0 0 0 0 0 0 2 -1 4 -1 2 0 0 0 0 1 0 1 0 1 -1 2 0 -1 3 -1 0 1 1 0 2 -2 0 1 2 0 0 0 2 1 1 1 2 -1 -1 -1 1 0 0 -2 -2 -2 1 0 0 0 0 1 -1 -2 -1 -1 4 -3 1 1 3 2 1 1 2 -1 -1 -2 0 0 0 0 0 0 0 -1 0 -1 1 0 -1 -1 2 0 2 -1 0 -2 0 -1 0 -1 0 0 -1 2 -1 1 -2 -1 0 -1 0 -1 -2 2 -1 0 -2 -3 -1 -3 0 1 -1 0 -1 1 1 2 -1 0 1 0 -1 0 1 1 -1 0 0 0 0 0 -1 0 0 0 -1 1 -2 -2 -2 1 0 0 -1 -1 0 -1 1 -4 1 -1 2 0 0 0 1 -1 0 -2 -3 -2 -1 0 -1 0 0 0 0 0 -1 0 -1 0 -2 0 -1 0 0 0 0 0 0 2 -1 1 -2 0 0 1 0 z M 487 545 l 1 1 -1 0 0 0 -1 0 0 -2 z M 497 539 l 1 0 -1 0 1 1 z M 464 566 l 0 -2 -1 -1 0 -1 0 0 0 -1 0 0 -2 -1 -1 1 -1 0 0 1 0 1 0 1 -1 1 0 0 0 0 -1 0 0 0 -1 1 -1 -1 0 0 0 0 0 0 0 0 0 -2 0 -1 0 -1 -2 0 0 1 -1 -1 0 0 -1 0 0 0 -1 0 0 0 -1 0 0 0 0 0 -1 0 0 0 -1 1 1 1 -1 2 0 0 0 0 0 0 1 2 -3 0 -3 -1 -4 0 -1 -2 -1 0 0 0 -2 -1 -3 -1 -1 -3 0 -3 0 -5 0 -3 0 -3 2 -2 0 0 0 -1 -2 2 -2 3 0 2 0 0 0 0 0 1 -1 0 0 0 0 -2 -4 0 1 1 0 0 1 0 2 2 -1 4 -2 0 0 1 0 0 0 1 -1 -2 -4 0 -1 -3 -2 -1 1 2 0 1 -1 0 1 0 -1 1 1 0 -1 0 1 0 -1 1 1 0 -1 0 1 0 -1 0 0 1 -1 0 0 0 0 0 -1 2 -3 1 -2 1 0 -1 -1 0 -2 1 -1 1 -1 -1 -1 0 -1 0 0 0 -1 0 -1 -2 0 -2 0 1 0 -2 2 -2 0 -2 -1 -2 -1 -3 -2 -1 -2 -3 -2 -1 -2 -2 -1 -4 -1 -2 -3 -2 -1 -2 -2 -2 0 -3 -1 -4 -1 -2 -1 -2 -2 -4 3 -2 2 -2 -1 -4 2 -4 1 -1 2 -2 1 -3 1 -1 -2 0 -2 -2 0 -1 0 0 0 0 0 0 0 -1 1 -1 -1 -2 -1 -2 -1 -2 -3 -2 0 -2 1 -2 1 -3 1 -3 0 -4 1 -2 1 -2 2 -4 0 -4 1 -3 2 -2 2 -1 2 -2 1 -4 1 -2 1 0 1 1 2 -1 2 -1 3 -1 1 -1 0 0 1 -1 1 -1 0 -1 0 -1 2 -1 1 1 3 1 2 2 1 2 4 1 2 1 2 1 4 0 2 0 1 0 2 0 2 2 2 3 2 2 2 2 1 2 2 2 1 4 -1 3 -3 2 0 2 3 1 3 1 4 -1 4 -1 4 1 3 1 1 3 4 0 3 -1 2 -2 2 0 4 0 1 -5 2 0 0 3 1 4 2 2 0 0 0 0 2 2 4 1 4 -1 4 0 3 2 3 0 2 1 2 0 2 -2 3 -1 3 0 1 -3 1 -3 1 0 1 1 2 -1 2 0 3 1 1 1 4 0 2 1 0 2 0 1 0 1 -1 0 -2 2 -2 1 2 2 2 2 3 0 2 0 0 1 0 1 3 1 2 1 2 3 2 2 1 2 4 1 1 0 0 0 1 0 1 3 0 4 -1 3 -2 1 -4 -1 -2 -1 -1 0 1 0 1 2 -1 3 -1 2 -1 2 -4 1 -2 2 -2 1 -2 2 -3 3 -3 1 -2 0 -2 1 -2 0 1 1 -3 1 -1 1 0 0 0 3 0 3 -1 0 1 -1 0 -1 -1 0 -2 1 -3 1 -2 0 0 2 2 1 2 2 0 2 -2 1 1 2 -3 0 0 0 -1 0 -1 0 0 0 1 -2 1 0 -1 -1 -1 -1 -1 1 -2 0 2 1 -1 3 -1 -1 -1 0 0 0 -1 -2 -3 0 -2 -1 1 -1 0 -1 -1 -2 1 0 -1 -1 -1 -1 -1 1 0 0 0 2 -2 -1 -2 -2 -2 2 1 0 -1 0 -1 -3 -2 -2 2 -5 2 -1 -1 0 -3 1 0 -1 0 0 0 0 -1 1 -1 3 1 3 1 1 0 0 0 0 0 0 0 1 0 0 0 1 0 1 0 0 0 0 -1 0 2 1 -1 1 1 0 1 3 2 2 0 0 -2 1 3 1 -3 1 -3 1 0 0 0 -1 1 -1 0 -1 0 1 -2 -1 0 -2 -3 -2 -1 -1 -1 1 -3 0 -4 1 -2 0 2 1 0 2 -3 1 -1 2 0 0 -1 0 0 -1 -1 0 -2 2 -2 0 1 1 -1 1 0 2 2 0 1 -3 4 -1 2 -1 -1 0 0 -1 2 -1 2 1 0 0 0 1 0 0 -1 1 1 1 0 0 0 0 0 1 0 0 1 2 -1 2 0 0 0 0 0 0 0 0 0 1 0 -1 0 1 -1 -1 -2 1 -3 0 -2 0 1 1 -1 0 3 1 0 4 -1 1 0 0 0 0 0 0 1 2 -1 2 0 0 0 2 1 3 0 -2 1 0 0 -1 0 0 0 0 0 0 0 0 1 -1 -1 -1 0 0 0 0 0 0 1 0 2 2 0 3 -1 -1 -1 2 0 3 -2 0 -5 1 -1 -1 0 0 -1 -1 1 0 2 -1 2 -1 -2 -1 -2 -2 0 1 0 0 0 0 0 0 -1 0 0 1 1 0 -2 0 -1 -2 -1 1 0 0 -1 0 0 0 -1 0 1 0 -1 0 0 0 -1 -1 -1 -2 0 0 0 0 2 0 z M 405 561 l 0 0 0 0 0 0 z " />
<path id="제주특별자치도" stroke="#ffffff" fill="#034409" stroke-width="2" stroke-linejoin="round" d="M 310 750 l 1 2 -1 2 -1 0 -1 -1 1 -1 0 0 0 0 0 0 0 -1 z M 230 790 l 0 -1 0 0 0 0 0 0 0 0 0 0 -1 -1 -3 -2 -2 -1 -2 -2 -1 -4 1 -4 0 -2 0 0 1 -1 2 -1 2 -2 1 -1 0 0 2 -1 1 -2 1 0 -1 -1 1 -1 -1 1 2 -1 1 -2 3 -2 1 -2 2 0 -1 0 0 0 0 0 0 0 0 0 2 0 4 -2 4 0 2 -1 2 -1 3 -1 4 -1 2 -1 1 0 -1 0 0 1 0 0 0 0 1 0 1 -1 1 0 0 0 0 0 1 0 0 -1 0 0 2 0 4 -1 2 0 2 -2 0 1 0 -1 0 0 0 0 1 1 1 0 1 -1 1 0 1 0 2 0 4 -1 4 0 3 1 2 1 3 2 3 1 2 1 1 2 0 2 -1 1 1 0 0 0 1 1 0 1 1 -1 1 1 1 1 -2 1 -1 3 -1 2 -2 3 -2 2 -1 1 -2 4 -1 1 1 1 -1 0 -2 2 -3 0 -3 1 -1 1 0 0 -1 1 -3 1 -4 1 -4 0 -2 1 -2 2 -4 0 -4 1 -3 0 -2 1 0 0 0 0 0 0 -1 0 -2 0 -1 0 0 0 0 -1 0 0 0 0 -2 0 -4 -1 -4 1 -4 0 -3 0 -1 2 -2 2 0 0 0 0 1 0 0 1 -1 0 -1 0 0 0 0 0 -1 0 -1 -1 -1 -1 0 0 0 0 1 1 z M 242 692 l 0 0 0 0 -1 2 -2 -1 0 -1 0 0 1 0 z M 243 688 l 0 1 0 0 0 -1 z M 242 684 l 0 1 0 0 0 0 1 0 0 0 0 0 -1 0 z " />
<path id="강원특별자치도" stroke="#ffffff" fill="#023905" stroke-width="2" stroke-linejoin="round" d="M 487 126 l -1 0 0 0 0 0 z M 354 112 l 1 1 0 0 0 0 z M 394 111 l -1 0 0 0 0 0 z M 392 110 l 0 0 0 0 0 0 z M 392 110 l 0 0 0 0 -1 1 z M 398 109 l -1 1 0 -1 0 0 z M 428 110 l 0 0 0 0 0 2 1 2 -1 0 0 0 0 0 0 0 -1 -2 0 -2 0 0 z M 455 88 l 0 -1 0 0 0 1 0 0 0 0 z M 457 79 l 2 0 0 0 0 0 0 0 0 0 0 0 0 0 0 0 0 0 0 0 z M 457 76 l 0 -1 -1 1 1 -1 z M 509 164 l 0 0 2 2 1 2 -1 -1 1 2 1 2 3 4 1 1 1 2 3 2 2 2 2 1 -1 0 0 1 3 2 1 1 0 0 0 0 1 1 -1 0 2 2 1 2 3 2 1 3 0 3 1 3 1 0 -1 0 0 -1 0 1 0 0 0 0 2 2 2 2 2 2 0 3 0 2 0 0 1 2 1 2 0 1 0 1 2 1 1 1 1 1 0 0 1 1 2 4 0 2 2 2 2 2 0 0 0 0 2 1 1 4 1 2 0 1 0 0 2 2 2 2 1 1 2 3 1 2 0 0 0 0 0 0 1 0 -1 3 0 1 0 0 0 2 0 2 0 0 1 3 1 3 -4 1 -2 1 -2 2 -2 2 -2 2 -2 2 0 0 1 2 0 2 -1 0 0 0 -1 0 -1 0 -1 0 -1 0 -1 -2 -3 -2 -2 -1 -3 -2 -3 1 -2 3 -2 -1 -1 0 -4 -1 -4 0 -3 -1 -2 3 -1 2 0 1 -1 -1 -2 1 0 0 -2 -1 -2 -2 0 -1 -1 0 -2 0 0 0 0 0 0 -1 -3 0 -1 2 -1 1 0 2 0 1 -2 1 -3 -1 -2 -2 -3 -1 -3 -1 -1 -2 -2 1 0 0 0 0 -1 0 0 0 -1 0 0 0 -3 -1 -4 -2 -1 -1 -2 -1 -4 1 -1 0 -1 0 0 0 -2 1 -1 -2 -1 -2 0 0 0 -1 -2 -2 -4 0 -3 1 -2 2 -3 -3 1 -2 3 -2 2 -2 0 1 0 -1 0 -1 -2 -1 -4 0 -2 -1 0 -1 -1 1 -1 -1 -4 -2 -2 2 -2 2 -2 -1 -1 -1 -2 2 -1 2 -2 1 -3 0 -2 0 -1 -2 1 -1 -1 -1 -1 -3 -3 -1 -1 0 0 0 0 0 -1 0 -2 1 -3 2 0 1 1 3 0 3 -1 1 -2 2 -3 0 -4 0 -4 2 -4 -2 -1 -3 -1 -2 0 -1 0 -2 0 -1 0 -1 1 -2 0 -4 0 -3 1 -4 0 -4 2 -4 0 -1 1 -2 1 -4 -1 -3 -1 -2 -2 -2 2 -3 2 -2 3 -1 1 -2 -3 -1 -2 -2 -3 -1 -4 0 -3 -1 -2 -2 -2 -2 -2 -1 -2 -2 -3 0 -2 2 -2 0 -2 -2 1 -4 1 -4 0 -3 -2 1 -1 0 0 -1 -2 1 1 -2 1 -2 1 -2 -2 -3 1 -2 1 -1 -1 -2 0 -2 3 -2 1 -1 2 -1 2 -2 1 -3 0 -3 -1 -2 -2 -2 -4 -1 -1 -3 -3 -1 -3 -1 -2 -1 -1 -2 -1 -3 0 -4 -1 -4 -4 0 -3 0 -3 1 -1 1 -2 -1 -2 -2 -2 -1 0 -1 0 0 1 -2 0 -3 -3 1 -2 1 -1 1 -3 -1 -1 -2 -1 -3 -1 -3 -1 -2 -1 -1 -1 0 -2 0 -2 -3 0 -2 2 -3 1 0 0 0 0 -1 0 0 0 0 0 1 1 0 1 2 2 0 0 0 0 -1 -1 -1 0 0 0 0 0 0 0 0 0 0 3 -2 3 -1 1 -1 1 -1 0 1 1 0 1 0 0 0 0 0 0 0 0 0 1 0 0 0 0 0 0 0 0 0 0 0 0 0 0 1 1 -1 0 0 1 2 1 2 0 -2 4 1 3 -1 1 -2 0 0 1 -1 2 1 2 1 0 -1 0 0 1 0 0 0 1 1 5 1 3 1 3 -2 2 -1 2 -1 4 0 0 1 5 1 2 0 4 1 4 -1 4 3 2 1 3 1 3 -1 2 -2 3 0 3 0 2 2 2 1 4 -1 4 0 2 0 0 -1 1 -3 2 -1 1 0 1 0 1 0 1 0 0 0 0 0 1 0 2 1 2 0 -1 -1 0 0 1 -2 0 -2 0 0 1 -1 4 -1 2 -1 0 -2 0 -1 0 0 0 -1 0 0 0 0 0 -1 2 -2 3 1 0 -4 -2 -1 2 0 2 -3 1 -2 0 0 0 -2 0 -2 0 -2 0 -2 0 -2 2 -1 1 -1 -1 1 0 -1 0 1 0 -1 2 1 2 2 1 1 0 0 0 2 1 2 0 2 2 4 1 2 1 2 0 3 2 4 2 2 2 3 0 2 2 3 2 3 0 3 1 2 0 1 0 0 1 1 2 3 2 2 0 1 0 -1 -1 0 -1 2 2 1 0 4 2 4 1 0 0 0 0 1 0 0 0 0 1 2 2 2 1 0 0 0 1 2 1 3 2 2 3 3 0 2 0 0 0 0 2 2 1 3 2 2 1 0 0 0 z M 456 75 l 0 1 0 -1 0 1 z M 459 74 l 0 0 0 0 0 0 z M 459 73 l 0 0 0 0 0 0 z M 460 73 l -1 0 0 0 0 0 z M 493 141 l 0 0 1 0 0 0 z " />
<path id="전북특별자치도" stroke="#ffffff" fill="#012e02" stroke-width="2" stroke-linejoin="round" d="M 241 471 l -1 2 -3 3 -1 1 -1 -1 0 0 0 0 0 -1 1 -1 2 -2 0 1 0 -2 1 1 0 0 z M 238 469 l -1 0 0 0 1 0 1 0 0 0 0 0 0 0 z M 219 465 l 1 0 0 0 -1 0 z M 259 453 l 0 0 -1 0 0 0 z M 255 446 l 0 1 0 0 -1 0 -1 -1 0 0 1 -1 0 1 1 0 0 -1 0 1 1 0 0 0 -1 -1 z M 252 445 l 1 1 0 -1 0 1 -1 0 0 0 0 -1 0 1 z M 266 415 l 0 0 0 0 0 0 z M 207 403 l 1 1 -1 -1 0 0 0 0 0 0 0 0 -1 1 z M 265 462 l 1 -1 2 -1 -3 -4 -2 -5 -2 -5 -2 -1 -2 -1 2 -1 2 -2 3 -7 1 -6 0 -4 5 0 2 -1 3 0 4 0 2 -2 2 -1 4 2 0 1 1 -1 2 -2 0 -2 -1 0 2 -2 4 0 2 -2 2 -1 3 -1 1 -3 0 -4 1 -3 3 0 3 -2 5 0 3 1 3 1 2 3 0 3 3 2 2 1 2 0 1 -1 2 -1 5 -1 1 -1 0 0 0 0 1 0 1 1 3 1 -1 -2 0 0 0 0 0 0 2 -1 4 -1 2 -1 1 -1 2 1 1 2 0 1 -1 1 1 1 1 4 2 4 1 1 1 1 1 0 0 0 1 -1 2 -1 1 3 1 3 1 0 0 -1 2 1 1 -1 1 0 1 1 2 -1 1 -2 0 -3 -1 -2 2 1 4 1 2 2 1 1 1 -3 2 -1 -1 -1 0 -3 2 1 2 2 0 -1 2 -1 2 2 3 1 2 1 1 2 2 -1 2 -1 4 -1 4 1 1 3 1 2 1 2 0 4 -2 2 0 1 1 1 -2 1 -2 1 0 1 0 1 -1 1 -1 1 0 0 -1 1 -3 1 -2 1 -2 1 -1 -1 -1 0 -1 2 -1 4 -2 2 -2 1 -2 2 -1 3 0 4 -2 4 -1 2 -1 2 0 4 -1 3 -1 3 -1 2 0 2 3 2 1 2 1 2 1 2 -1 1 0 1 0 0 0 0 0 0 0 1 2 2 2 0 -1 1 -1 3 -2 2 -1 1 -2 4 1 4 -2 2 -3 2 -1 -2 -2 -1 -3 -2 -1 -2 -4 -1 -3 1 -3 1 -1 2 -2 3 -2 0 -2 -1 0 0 -1 0 0 0 -1 1 -4 0 -4 0 -4 -2 -2 1 0 0 0 0 0 0 -3 -1 -2 0 -2 2 -2 1 -4 0 -3 -2 -1 -2 1 -4 0 -2 0 0 -1 0 -2 -2 1 -1 0 -3 -1 -2 0 -2 0 -1 0 0 0 0 -2 0 -1 0 -1 0 0 2 -3 4 0 2 -3 1 -1 -1 0 0 0 0 0 0 0 -1 -1 0 0 1 -2 -2 -1 -3 -2 -3 -2 0 -1 0 -1 0 0 -2 -4 0 -3 1 -2 1 -2 2 1 2 0 2 -1 1 -1 2 -1 3 -2 2 -2 1 0 0 -1 0 -2 2 -3 1 -4 0 -1 1 0 0 0 1 -2 0 -4 0 -1 -3 -1 -3 -2 -1 -1 -4 0 -3 -3 -2 -1 -1 -2 0 1 -2 2 -4 1 -2 1 -1 1 -2 1 1 1 -2 2 -1 2 0 0 1 2 -1 4 0 0 3 1 -3 1 -2 1 -2 4 1 2 3 -1 -4 -1 -2 -4 -1 -2 0 -5 0 -5 1 -3 -2 -2 -1 1 0 -1 0 1 0 -1 0 1 0 -1 0 0 0 0 0 0 0 0 -1 1 -2 -1 0 0 0 0 0 1 0 -1 0 1 -1 -1 0 0 -1 2 -1 3 -2 z M 278 447 l 1 1 4 -1 0 -3 -1 -4 0 -2 -2 -3 -4 0 -2 -3 1 -4 -2 -1 -6 1 -1 1 -2 6 -1 4 -1 2 -1 3 0 3 2 5 2 3 4 5 1 1 0 0 1 -2 3 -3 1 -2 1 -3 z " />

<rect x="310" y="210" width="38" height="16" fill="#FFFFFF" fill-opacity="0.9"/>
<text id="1" x="329" y="222" font-size="12" fill="#000000" text-anchor="middle">Seoul</text>

<rect x="512" y="518" width="60" height="16" fill="#FFFFFF" fill-opacity="0.9"/>
<text id="2" x="542" y="530" font-size="12" fill="#000000" text-anchor="middle">Busan</text>

<rect x="460" y="422" width="50" height="16" fill="#FFFFFF" fill-opacity="0.9"/>
<text id="3" x="485" y="434" font-size="12" fill="#000000" text-anchor="middle">Daegu</text>

<rect x="200" y="223" width="60" height="16" fill="#FFFFFF" fill-opacity="0.9"/>
<text id="4" x="230" y="235" font-size="12" fill="#000000" text-anchor="middle">Incheon</text>

<rect x="270" y="528" width="50" height="16" fill="#FFFFFF" fill-opacity="0.9"/>
<text id="5" x="295" y="540" font-size="12" fill="#000000" text-anchor="middle">Gwangju</text>

<rect x="330" y="368" width="60" height="16" fill="#FFFFFF" fill-opacity="0.9"/>
<text id="6" x="360" y="380" font-size="12" fill="#000000" text-anchor="middle">Daejeon</text>

<rect x="538" y="468" width="60" height="16" fill="#FFFFFF" fill-opacity="0.9"/>
<text id="7" x="568" y="480" font-size="12" fill="#000000" text-anchor="middle">Ulsan</text>

<rect x="306" y="339" width="60" height="16" fill="#FFFFFF" fill-opacity="0.9"/>
<text id="8" x="336" y="351" font-size="12" fill="#000000" text-anchor="middle">Sejong</text>

<rect x="320" y="238" width="60" height="16" fill="#FFFFFF" fill-opacity="0.9"/>
<text id="9" x="350" y="250" font-size="12" fill="#000000" text-anchor="middle">Gyeonggi</text>

<rect x="365" y="308" width="60" height="16" fill="#FFFFFF" fill-opacity="0.9"/>
<text id="10" x="395" y="320" font-size="12" fill="#000000" text-anchor="middle">Chungbuk</text>

<rect x="255" y="318" width="60" height="16" fill="#FFFFFF" fill-opacity="0.9"/>
<text id="11" x="285" y="330" font-size="12" fill="#000000" text-anchor="middle">Chungnam</text>

<rect x="277" y="566" width="60" height="16" fill="#FFFFFF" fill-opacity="0.9"/>
<text id="12" x="307" y="578" font-size="12" fill="#000000" text-anchor="middle">Jeonnam</text>

<rect x="470" y="344" width="60" height="16" fill="#FFFFFF" fill-opacity="0.9"/>
<text id="13" x="500" y="356" font-size="12" fill="#000000" text-anchor="middle">Gyeongbuk</text>

<rect x="424" y="498" width="60" height="16" fill="#FFFFFF" fill-opacity="0.9"/>
<text id="14" x="454" y="510" font-size="12" fill="#000000" text-anchor="middle">Gyeongnam</text>

<rect x="240" y="758" width="60" height="16" fill="#FFFFFF" fill-opacity="0.9"/>
<text id="15" x="270" y="770" font-size="12" fill="#000000" text-anchor="middle">Jeju</text>

<rect x="420" y="174" width="60" height="16" fill="#FFFFFF" fill-opacity="0.9"/>
<text id="16" x="450" y="186" font-size="12" fill="#000000" text-anchor="middle">Gangwon</text>

<rect x="295" y="453" width="60" height="16" fill="#FFFFFF" fill-opacity="0.9"/>
<text id="17" x="325" y="465" font-size="12" fill="#000000" text-anchor="middle">Jeonbuk</text>

</svg>
